<?xml version="1.0" encoding="iso-8859-1"?>
<!-- Generator: Adobe Illustrator 19.0.0, SVG Export Plug-In . SVG Version: 6.00 Build 0)  -->
<svg version="1.1" id="Layer_1" xmlns="http://www.w3.org/2000/svg" xmlns:xlink="http://www.w3.org/1999/xlink" x="0px" y="0px"
	 viewBox="0 0 512.001 512.001" style="enable-background:new 0 0 512.001 512.001;" xml:space="preserve">
<path style="fill:#3C95AB;" d="M176.314,42.518c37.057,37.057,50.677,86.663,37.734,124.309l288.172,288.171
	c13.04,13.04,13.04,34.183,0,47.223L254.66,270.402L22.841,22.842C59.788-14.106,128.5-5.296,176.314,42.518z"/>
<path style="fill:#296B94;" d="M22.841,22.842L502.22,502.221c-13.04,13.039-34.183,13.039-47.222,0L166.825,214.049
	c-37.646,12.942-87.251-0.678-124.308-37.734C-5.297,128.501-14.107,59.789,22.841,22.842z"/>
<path style="fill:#74D1D2;" d="M335.686,42.518c-37.057,37.057-50.677,86.663-37.734,124.309L9.78,454.999
	c-13.04,13.04-13.04,34.183,0,47.223l247.56-231.819L489.159,22.842C452.212-14.106,383.5-5.296,335.686,42.518z"/>
<path style="fill:#51C0C2;" d="M489.159,22.842L9.78,502.221c13.04,13.039,34.183,13.039,47.222,0l288.172-288.172
	c37.646,12.942,87.253-0.678,124.308-37.734C517.297,128.501,526.107,59.789,489.159,22.842z"/>
<g>
</g>
<g>
</g>
<g>
</g>
<g>
</g>
<g>
</g>
<g>
</g>
<g>
</g>
<g>
</g>
<g>
</g>
<g>
</g>
<g>
</g>
<g>
</g>
<g>
</g>
<g>
</g>
<g>
</g>
</svg>
